<svg xmlns="http://www.w3.org/2000/svg" xmlns:xlink="http://www.w3.org/1999/xlink" viewBox="0 0 793.5 556.5"><defs><style>.cls-1,.cls-3,.cls-4{fill:none;}.cls-2{clip-path:url(#clip-path);}.cls-3{stroke:#17437a;stroke-width:20px;}.cls-3,.cls-4{stroke-miterlimit:10;}.cls-4{stroke:#fda931;stroke-width:11px;}</style><clipPath id="clip-path"><path class="cls-1" d="M661.29,396.54a50.55,50.55,0,0,1-1.27-6.37c-.18-1.57-.27-2.89,1.1-4a1.32,1.32,0,0,0,.44-1.57c-.73-1.63-.8-3.52-2-5a1.26,1.26,0,0,1-.2-1.44,10.9,10.9,0,0,0,.84-5.26,4.86,4.86,0,0,1,.4-2.25,14.12,14.12,0,0,0,1-7.15,29.06,29.06,0,0,0-1.62-7.69c-.87-2.41-1.78-4.8-2.67-7.2a9.64,9.64,0,0,1-.64-3.19,22.92,22.92,0,0,0-.29-5.36.7.7,0,0,1,0-.38c.44-1.34,0-2.67-.06-4-.17-2.1-.36-4.21-.63-6.3-.49-3.77-1.85-7.32-2.71-11a3.46,3.46,0,0,0-.19-.54.66.66,0,0,0-.76-.45c-.43,0-.66-.26-.48-.57a3.07,3.07,0,0,0-.07-2.94q-2.75-6.56-5.48-13.12a2.76,2.76,0,0,0-.77-1.31,2.17,2.17,0,0,1-.85-1.83A5.65,5.65,0,0,0,644,296a3.1,3.1,0,0,1,.09-2.24c.56-1.49,1-3,1.52-4.55a6.37,6.37,0,0,0,.07-3.41c-.15-.65-.63-1.15-.73-1.74a10.6,10.6,0,0,1,.14-2.08,5.28,5.28,0,0,0-.16-.94,121.35,121.35,0,0,0-3-12.3,12.64,12.64,0,0,0-1-2.69c-1.75-3.3-3.66-6.47-6.71-8.77a2.31,2.31,0,0,1-.55-.53,17.4,17.4,0,0,0-2.89-2.8,37.15,37.15,0,0,0-5.67-4,13.5,13.5,0,0,0-1.82-.54c-.63-.27-.61-1.12-1.23-1.43-.45-.23-.89-.5-1.34-.74l-4.74-2.54a7.72,7.72,0,0,0-2-.78,3.6,3.6,0,0,1-1.25-.45,72.88,72.88,0,0,0-7.47-3.94c-.33-.18-.78-.43-1.07-.34-1,.34-1.54-.35-2.14-.92-.41-.4-.78-.85-1.23-1.21-1.61-1.26-3.18-2.62-5.35-2.82a1,1,0,0,1-.84-.4,4.06,4.06,0,0,0-2.35-1.56,2.38,2.38,0,0,1-1.59-1.77,8.72,8.72,0,0,1-.31-1.11,63,63,0,0,1-.92-8.78,24.73,24.73,0,0,0-.09-4.22c-.44-2.79-.27-5.62-.6-8.42a56.62,56.62,0,0,0-.74-6.86,4.4,4.4,0,0,1-.09-1,72.91,72.91,0,0,0-.93-9c-.79-5.06-1.27-10.16-1.77-15.25-.12-1.15-.27-2.29-.38-3.44-.32-3.12-.35-6.26-.75-9.37a72.82,72.82,0,0,0-1.54-8.69c-.42-1.62-1.06-3.16-1.54-4.75-1-3.21-2.4-6.21-3.59-9.32-.94-2.45-2-4.87-3.1-7.24-1.6-3.34-3.32-6.64-5-9.94A41.71,41.71,0,0,0,565,117.1a36.35,36.35,0,0,0-7.4-6.94,47.67,47.67,0,0,0-8.24-4.51c-4.76-2.22-9.82-2.76-14.95-3.08a2.82,2.82,0,0,0-.58,0c-2,.19-3.94.45-5.92.58a15.1,15.1,0,0,0-7.38,2.5,5.78,5.78,0,0,1-3.6,1,12.49,12.49,0,0,0-4.72.74,52.47,52.47,0,0,0-8.83,3.72A21.31,21.31,0,0,0,498.2,115c-.69.76-1.46,1.44-2.15,2.2a40,40,0,0,0-3.83,5c-1.81,2.82-3.09,5.89-4.62,8.85a40.63,40.63,0,0,0-3.88,14.19c-.41,3.49-.69,7-1.27,10.48a26,26,0,0,0-.31,3.63,137.42,137.42,0,0,0,.86,16.48c.33,3.89.77,7.77,1,11.66.21,3.2.71,6.36,1,9.55a61.57,61.57,0,0,1,.57,8c-.13,4.54.32,9.1-.41,13.62-.38,2.34-.79,4.67-1.16,7a2.18,2.18,0,0,1-1.65,1.91,54.06,54.06,0,0,1-5.66,1.81,6.73,6.73,0,0,0-4.59,2.9,14.19,14.19,0,0,1-3,2.69,1.69,1.69,0,0,1-1.06.39,11,11,0,0,0-5.77,2.39c-.57.41-1.15.83-1.73,1.22a5.59,5.59,0,0,1-3.61,1.08,6.82,6.82,0,0,0-3.68.93,12.48,12.48,0,0,0-2.52,1.75,19.85,19.85,0,0,0-4.42,5.27,4.82,4.82,0,0,1-3.31,2.71c-2.2.43-4.41.84-6.63,1.14a5.81,5.81,0,0,0-3,1.2,47.59,47.59,0,0,0-5.35,4.67c-2.14,2.3-4.31,4.56-6.46,6.84a3.82,3.82,0,0,0-1.05,1.58c-.09.32-.22.67-.53.77-1.17.37-2,1.26-3.22,1.67a6,6,0,0,0-4.12,5.47,2.35,2.35,0,0,1-2.76,2.41c-.38,0-.76-.13-1.14-.17a10.11,10.11,0,0,0-5.44.8c-2.21,1-4.33,2.22-6.5,3.33a14.89,14.89,0,0,0-6.06,5.47c-1,1.62-2.58,2-4.25,2.23a.74.74,0,0,1-.83-.64c-.09-.38-.15-.76-.24-1.13-.7-3-1.38-6-2.12-9a127.08,127.08,0,0,0-9.41-25c-1.6-3.29-3.45-6.43-5.31-9.57a126.92,126.92,0,0,0-16.27-21.6,123.83,123.83,0,0,0-10.31-10.05A147.47,147.47,0,0,0,330,201.85a137.59,137.59,0,0,0-45.31-20.38,127.31,127.31,0,0,0-26-3.75c-2.81-.09-5.63-.22-8.44-.28-1.93,0-3.83.37-5.75.35a85.4,85.4,0,0,0-10.71,1c-3.75.44-7.45,1.21-11.14,2a133.47,133.47,0,0,0-51.94,24,123.33,123.33,0,0,0-10.43,8.79c-3.09,3-6.14,6-9,9.23a131.06,131.06,0,0,0-21.19,32.8,131.17,131.17,0,0,0-9,28.12,121.19,121.19,0,0,0-2,14.07,134.79,134.79,0,0,0-.62,13.62c.08,3.71.41,7.41.33,11.13,0,1,0,2.05,0,3.08a8.63,8.63,0,0,0,.17,1.52,1.29,1.29,0,0,0,1.2,1.08c.7.05,1.41.07,2.11.07l76.5,0,60.93,0q26.82,0,53.63-.07a9.18,9.18,0,0,1,4.24,1c2.51,1.27,5.07,2.46,7.63,3.63,1.46.67,3,1.25,4.44,1.84a131.91,131.91,0,0,0,13.66,4.58,8.18,8.18,0,0,1,1.08.39,1.19,1.19,0,0,1,.76,1,7.69,7.69,0,0,1,0,1,5.78,5.78,0,0,0,2.58,5.26,4.69,4.69,0,0,0,3,1.06,63.44,63.44,0,0,1,7.29.26,9.08,9.08,0,0,0,8.15-3c.13-.15.28-.27.41-.42a4.33,4.33,0,0,1,2.1-1.27,14.52,14.52,0,0,0,2.67-1.05q4.44-2.29,8.81-4.7a4.72,4.72,0,0,1,2.18-.65,20.18,20.18,0,0,0,7.56-2,7.94,7.94,0,0,1,6.49-.72,6,6,0,0,0,4.66-.39,15.62,15.62,0,0,1,5.68-1.68,12.73,12.73,0,0,0,1.69-.36,32.72,32.72,0,0,1,3.4-.61,54.83,54.83,0,0,0,6.72-1.5,9.31,9.31,0,0,0,1.78-.71c.71-.3,1.41-.62,2.11-.94q6.54-3,12.88-6.45,2.53-1.38,5.16-2.57c2.09-.95,2.05-.49,2,1.51,0,.38-.12.76-.17,1.14-.19,1.39-.41,2.79-.55,4.19-.31,3.25-.57,6.5-.89,9.75-.31,3.05-.66,6.1-1,9.16q-.58,5.06-1.18,10.1c-.24,2-.59,3.93-.74,5.91a47.42,47.42,0,0,1-.77,6.05c-.3,1.37-.33,2.8-.53,4.19-.67,4.5-1.37,9-2.05,13.49-.43,2.85-.87,5.69-1.25,8.55-.52,3.87-1,7.75-1.49,11.62-.22,1.71-.57,3.41-.82,5.12-.47,3.23-.87,6.47-1.39,9.69-.44,2.72-1,5.42-1.5,8.12-.34,1.83-.69,3.66-1,5.49-.61,3.73-1.21,7.46-1.76,11.19-.46,3.1-1.35,6.14-1.38,9.3a2.1,2.1,0,0,1-.24.92,8.71,8.71,0,0,0-.68,2.39c-.49,2.45-1,4.9-1.48,7.35-.17.82-.16,1.65-.25,2.48a4.16,4.16,0,0,0,1.18,3.33,11.69,11.69,0,0,0,1.56,1.42,35.33,35.33,0,0,0,6.44,3.79,70.07,70.07,0,0,0,10.54,4.14,6.73,6.73,0,0,1,1.24.51.57.57,0,0,1,.21.83,5.35,5.35,0,0,1-.44.62,3.67,3.67,0,0,0-.52,3.47c.09.31.24.59.33.9a.78.78,0,0,1-.48,1.09c-.65.28-1.33.48-2,.8a1.34,1.34,0,0,0-.66,2.07,2.8,2.8,0,0,0,.3.49,3.18,3.18,0,0,1,.27,3.44c-1,2.34-2,4.73-3,7.06-2.93,6.56-5.43,13.28-7.73,20.08-1,3-2,6.08-3,9.13H596a37,37,0,0,1,1.37-5.19,6.76,6.76,0,0,1,1.91-3.69,2.6,2.6,0,0,0,.45-.62,1.54,1.54,0,0,0,.11-1.8,4.57,4.57,0,0,1-.51-3.68,71.51,71.51,0,0,0,1.29-15.66c0-.77,0-1.54,0-2.31a25,25,0,0,0-.37-4.39,12.79,12.79,0,0,0-.94-3.49,2.05,2.05,0,0,1-.17-.74,6.91,6.91,0,0,0-.57-2.41,3.86,3.86,0,0,1-.24-1.32,6,6,0,0,0-.4-1.86,13.6,13.6,0,0,1-.46-1.66,1.09,1.09,0,0,1,.1-.92c.73-1.14,1.05-2.47,1.83-3.6a10.31,10.31,0,0,0,1.16-2.41,11.64,11.64,0,0,1,2.56-4,41.44,41.44,0,0,0,4.62-6.12,32.85,32.85,0,0,1,2.85-3.86,8.1,8.1,0,0,0,2.09-4.62,8.87,8.87,0,0,0-.65-4.68,75.45,75.45,0,0,1-4.47-12.25c-.28-1.12-.48-2.26-.8-3.37-1-3.58-1.76-7.2-2.44-10.85a19.45,19.45,0,0,1-.25-5.89c.16-1.39.35-1.53,1.68-.94l.18.08a86,86,0,0,0,17.73,5.6c1.95.37,3.89.79,5.85,1.14a43.7,43.7,0,0,1,8.09,2.39,39.61,39.61,0,0,0,4.23,1.29,9,9,0,0,0,7.22-1,15,15,0,0,1,2.6-1.2,9.42,9.42,0,0,0,5.2-4.59c.87-1.64,1.6-3.35,2.37-5a21.43,21.43,0,0,0,1.6-7.08,14.35,14.35,0,0,1,.35-2.26A21.29,21.29,0,0,0,661.29,396.54Z"/></clipPath></defs><title>boe-img</title><g id="Layer_2" data-name="Layer 2"><g id="Layer_3" data-name="Layer 3"><g class="cls-2"><image width="8256" height="5504" transform="scale(0.1)" xlink:href="D:%5CFreepik_Download%5C2022%5C02-Feb%5Chappy-kid-hold-protractor-study-trigonometry-school-isolated-white-show-ok-gesture-school.jpg"/></g><path class="cls-3" d="M788,537c-19.83,0-19.83-16-39.66-16s-19.83,16-39.67,16S688.84,521,669,521s-19.83,16-39.66,16-19.84-16-39.67-16S569.85,537,550,537s-19.83-16-39.66-16-19.84,16-39.67,16S450.85,521,431,521s-19.84,16-39.67,16-19.83-16-39.67-16S331.85,537,312,537s-19.83-16-39.66-16-19.84,16-39.68,16S212.84,521,193,521"/><path class="cls-4" d="M711,551c-19.83,0-19.83-16-39.66-16s-19.83,16-39.67,16S611.84,535,592,535s-19.83,16-39.66,16-19.84-16-39.67-16S492.85,551,473,551s-19.83-16-39.66-16-19.84,16-39.67,16S373.85,535,354,535s-19.84,16-39.67,16-19.83-16-39.67-16S254.85,551,235,551s-19.83-16-39.66-16-19.84,16-39.68,16S135.84,535,116,535"/></g></g></svg>