<svg xmlns="http://www.w3.org/2000/svg" viewBox="0 0 164.99 37.32"><defs><style>.cls-1{fill:#fff;stroke:#fff;stroke-miterlimit:10;stroke-width:2px;}.cls-2{fill:#ffb620;}</style></defs><title>logo</title><g id="Layer_2" data-name="Layer 2"><g id="bg"><path class="cls-1" d="M29.31,30.51H24.59v4.71H5.72V30.51H1V25.79h9.44v4.72h9.43V6.92h9.44Z"/><path class="cls-1" d="M88.5,11.63H69.63v4.72H83.78v4.72H69.63V35.22H60.19V6.92H88.5Z"/><path class="cls-1" d="M126.24,30.51h-4.72v4.71H102.65V30.51H97.93V11.63h4.72V6.92h18.87v4.71h4.72Zm-9.43,0V11.63h-9.44V30.51Z"/><path class="cls-1" d="M164,35.22h-9.44V25.79h-9.44v9.43h-9.43V25.79h4.72V16.35h-4.72V6.92h9.43v9.43h9.44V6.92H164v9.43h-4.72v9.44H164Z"/><path class="cls-2" d="M30.21,20a11.74,11.74,0,0,0-1.66-.93c-3.78-1.71-8.27-.9-12,.88a12.94,12.94,0,0,1,8.28,3.79c2.8,2.84,4.15,6.84,6.8,9.83a10.37,10.37,0,0,0,7.3,3.75c3.44.08,7.4-3.32,7.26-6.94a14.38,14.38,0,0,1-3.3-.18,10.14,10.14,0,0,1-3.27-1.28c-2.19-1.33-3.82-3.47-5.51-5.34A22.71,22.71,0,0,0,30.21,20ZM33.8,27l-.35-.21-1.76-1c-.43-.24-.92-.37-1.35-.63a3.46,3.46,0,0,1,1.08,2.28c-1.06-.2-1.81-1.23-2.68-1.79.54.35.53,2.1.22,2.52.33-.46-1.17-2.39-1.43-2.8-1.46-2.31-3.08-4.55-5.6-5.84.52.26,2.11,0,2.79,0a13.58,13.58,0,0,1,3.14.7,11,11,0,0,1,4.72,3.24c1.16,1.39,1.72,3,3.17,4.21-.2-.16-.88-.19-1.15-.3A7.53,7.53,0,0,1,33.8,27Z"/><path class="cls-2" d="M40.54,17.06c3.4.53,6.92,1.24,10.23.3A60.52,60.52,0,0,1,46,12c-.82-1.12-1.66-2.37-3-2.81,0-3-.13-6.1-.32-9.15a6.29,6.29,0,0,0-2.66,2.5A30.4,30.4,0,0,0,37.74,7a1.56,1.56,0,0,0-.69.45,13.73,13.73,0,0,0-2.41,2.76,7,7,0,0,0,.68,7.9c.4.46.71.93,1.1,1.38A19.83,19.83,0,0,0,40.9,22.9a23.93,23.93,0,0,1,5.6,5,12.54,12.54,0,0,0-2.86-5A44.34,44.34,0,0,1,40,18.34a1.48,1.48,0,0,1-.21-.44A.74.74,0,0,1,40.54,17.06Zm2-5.44a3.2,3.2,0,0,1,1.12.6c.11.1.72.91.74.91a3.27,3.27,0,0,1-1.27-.19,3.06,3.06,0,0,1-.83-.3c-.19-.12-1-.73-.87-1S42.36,11.55,42.57,11.62Z"/></g></g></svg>